<svg id="Capa_1" enable-background="new 0 0 512 512" height="512" viewBox="0 0 512 512" width="512" xmlns="http://www.w3.org/2000/svg"><g><g><path d="m190.046 57.006h73.673v90.894h-73.673z" fill="#f9e997"/><path d="m256 57.006h65.954v90.894h-65.954z" fill="#f5d844"/></g><g><path d="m153.668 0v38.343l36.378 31.708h73.673l-7.719-70.051z" fill="#f5d844"/><path d="m256 0v70.051h65.954l36.378-31.708v-38.343z" fill="#ecbd2c"/></g><g><path d="m225.988 117.778c-71.844 0-130.084 58.241-130.084 130.084v190.33l-26.239 28.524v45.284h186.335l43.603-193.686-43.603-200.536z" fill="#ecbd2c"/><path d="m442.335 466.716-26.239-28.524v-190.33c0-71.844-58.241-130.084-130.084-130.084h-30.012v394.222h186.335z" fill="#e68f21"/></g><g fill="#f9e997"><path d="m208.638 358.617v30h32.57v25.345h14.792l7.719-30.918-7.719-24.427z"/><path d="m245.559 304.556c-6.634 0-12.03-5.396-12.03-12.03s5.396-12.03 12.03-12.03h10.441l7.719-21.848-7.719-33.498h-14.792v25.57c-21.139 2.184-37.679 20.099-37.679 41.805 0 23.176 18.854 42.03 42.03 42.03h10.441l7.719-14.372-7.719-15.627z"/></g><g fill="#f5d844"><path d="m294.494 280.495v-30h-23.286v-25.345h-15.208v55.345z"/><path d="m257.573 304.556h-1.573v30h1.573c6.634 0 12.03 5.397 12.03 12.031s-5.396 12.03-12.03 12.03h-1.573v55.345h15.208v-27.627c16.501-5.677 28.396-21.344 28.396-39.748-.001-23.176-18.855-42.031-42.031-42.031z"/></g></g></svg>